# Blender 5.1.1
# www.blender.org
mtllib Machine_rotate.mtl
o TwinGunBase
v 0.742899 -0.814911 -0.003951
v 0.448096 -0.000943 -0.003952
v 0.643370 -0.814911 0.367498
v 0.388063 -0.000943 0.220096
v 0.371450 -0.814911 0.639418
v 0.224048 -0.000943 0.384111
v 0.000000 -0.814911 0.738949
v 0.000000 -0.000943 0.444144
v -0.742899 -0.814911 -0.003951
v -0.448096 -0.000943 -0.003952
v -0.643370 -0.814911 0.367498
v -0.388063 -0.000943 0.220096
v -0.371450 -0.814911 0.639418
v -0.224048 -0.000943 0.384111
v 0.000000 -0.814911 -0.746850
v 0.000000 -0.000943 -0.452048
v 0.371450 -0.814911 -0.647321
v 0.224048 -0.000943 -0.392014
v 0.643370 -0.814911 -0.375401
v 0.388063 -0.000943 -0.228000
v 0.219638 -0.000943 0.122856
v 0.253616 -0.000943 -0.003952
v 0.253616 -0.484022 -0.003952
v 0.126808 -0.000943 0.215686
v 0.000000 -0.000943 0.249664
v 0.000000 -0.000943 -0.257568
v 0.126808 -0.000943 -0.223590
v 0.219638 -0.000943 -0.130760
v 0.219638 -0.484022 0.122856
v 0.126808 -0.484022 0.215686
v 0.000000 -0.484022 0.249664
v -0.371450 -0.814911 -0.647321
v -0.224048 -0.000943 -0.392014
v -0.643370 -0.814911 -0.375401
v -0.388063 -0.000943 -0.228000
v 0.000000 -0.484022 -0.257568
v 0.126808 -0.484022 -0.223590
v 0.219638 -0.484022 -0.130760
v 0.388063 0.114386 0.220096
v 0.448096 0.114386 -0.003952
v 0.224048 0.114386 0.384111
v 0.000000 0.114386 0.444144
v -0.219638 -0.000943 0.122856
v -0.253616 -0.000943 -0.003952
v -0.253616 -0.484022 -0.003952
v 0.000000 0.114386 -0.452048
v 0.224048 0.114386 -0.392014
v 0.388063 0.114386 -0.228000
v -0.126808 -0.000943 0.215686
v 1.099078 0.258461 -0.742830
v 1.304874 0.464258 -0.742830
v 1.304874 0.464258 0.760730
v 1.099078 0.258461 0.760730
v 1.304874 0.692047 0.760730
v 1.304874 0.936859 0.494331
v 1.304874 0.936859 -0.616290
v 1.304874 0.783573 -0.742830
v 0.000000 0.258461 -0.742830
v 0.000000 0.258461 0.760730
v -0.126808 -0.000943 -0.223590
v -0.219638 -0.000943 -0.130760
v -0.219638 -0.484022 0.122856
v -0.126808 -0.484022 0.215686
v 1.158576 0.114820 -0.742830
v 1.448515 0.404760 -0.742830
v 1.448515 0.404760 0.760730
v 1.158576 0.114820 0.760730
v 1.448515 0.692047 0.760730
v 1.448515 0.936859 0.494331
v 1.448515 0.936859 -0.616290
v 1.448515 0.783573 -0.742830
v 0.000000 0.114820 -0.742830
v 0.000000 0.114820 0.760730
v -0.126808 -0.484022 -0.223590
v -0.219638 -0.484022 -0.130760
v -0.388063 0.114386 0.220096
v -0.448096 0.114386 -0.003952
v -0.224048 0.114386 0.384111
v 0.000000 0.258461 0.256775
v 0.000000 0.258461 -0.217555
v 1.158576 0.114820 0.256775
v 1.158576 0.114820 -0.217555
v -0.224048 0.114386 -0.392014
v -0.388063 0.114386 -0.228000
v 1.304874 0.464258 0.256775
v 1.304874 0.464258 -0.217556
v 1.099078 0.258461 -0.217555
v 1.099078 0.258461 0.256775
v -1.099078 0.258461 -0.742830
v -1.304874 0.464258 -0.742830
v 1.448515 0.936859 0.372420
v 1.448515 0.936859 -0.368675
v 1.304874 0.936859 -0.368675
v 1.304874 0.936859 0.372420
v -1.304874 0.464258 0.760730
v -1.099078 0.258461 0.760730
v -1.304874 0.692047 0.760730
v -1.304874 0.936859 0.494332
v 0.000000 0.114820 -0.217555
v 0.000000 0.114820 0.256775
v 1.448515 0.404760 -0.217556
v 1.448515 0.404760 0.256775
v 1.304874 1.264851 0.256775
v 1.304874 1.397537 0.124089
v 1.448515 1.397537 0.124089
v 1.448515 1.264851 0.256775
v 1.304874 1.397537 -0.136339
v 1.304874 1.286156 -0.280358
v 1.448515 1.286156 -0.280358
v 1.448515 1.397537 -0.136339
v -1.304874 0.936859 -0.616289
v -1.304874 0.783573 -0.742830
v -1.158576 0.114820 -0.742830
v -1.448515 0.404760 -0.742830
v -1.448515 0.404760 0.760730
v -1.158576 0.114820 0.760730
v -1.448515 0.692047 0.760730
v -1.448515 0.936859 0.494332
v -1.448515 0.936859 -0.616289
v -1.448515 0.783573 -0.742830
v -1.158576 0.114820 0.256775
v -1.158576 0.114820 -0.217555
v -1.304874 0.464258 0.256775
v -1.304874 0.464258 -0.217555
v 0.635950 -0.484022 -0.003952
v 0.742899 -0.587328 -0.003952
v 0.643370 -0.587328 0.367498
v 0.550749 -0.484022 0.314023
v 0.371450 -0.587328 0.639418
v 0.317975 -0.484022 0.546798
v 0.000000 -0.484022 0.631998
v 0.000000 -0.587328 0.738949
v -1.099078 0.258461 -0.217555
v -1.099078 0.258461 0.256775
v 0.000000 -0.587328 -0.746850
v 0.000000 -0.484022 -0.639902
v 0.371450 -0.587328 -0.647321
v 0.317975 -0.484022 -0.554700
v 0.643370 -0.587328 -0.375402
v 0.550749 -0.484022 -0.321927
v -1.448515 0.936859 0.372420
v -1.448515 0.936859 -0.368675
v -1.304874 0.936859 -0.368675
v -1.304874 0.936859 0.372420
v -1.448515 0.404760 -0.217555
v -1.448515 0.404760 0.256775
v -1.304874 1.264851 0.256776
v -1.304874 1.397537 0.124089
v -1.448515 1.397537 0.124089
v -1.448515 1.264851 0.256776
v -1.304874 1.397537 -0.136339
v -1.304874 1.286156 -0.280358
v -1.448515 1.286156 -0.280358
v -1.448515 1.397537 -0.136339
v -0.635950 -0.484022 -0.003952
v -0.742899 -0.587328 -0.003952
v -0.643370 -0.587328 0.367498
v -0.550749 -0.484022 0.314023
v -0.371450 -0.587328 0.639418
v -0.317975 -0.484022 0.546798
v -0.371450 -0.587328 -0.647321
v -0.317975 -0.484022 -0.554700
v -0.643370 -0.587328 -0.375402
v -0.550749 -0.484022 -0.321927
vn -0.0000 -1.0000 -0.0000
vn -0.8660 -0.0000 -0.5000
vn -0.5000 -0.0000 -0.8660
vn -1.0000 -0.0000 -0.0000
vn -0.8660 -0.0000 0.5000
vn -0.0000 0.9048 -0.4257
vn -0.0000 0.3692 -0.9293
vn -0.4647 0.3692 -0.8048
vn -0.2129 0.9048 -0.3687
vn -0.3687 0.9048 -0.2129
vn -0.0000 1.0000 -0.0000
vn -0.0000 0.3325 0.9431
vn -0.0000 0.5330 0.8461
vn -0.3827 -0.9239 -0.0000
vn -0.9239 -0.3827 -0.0000
vn 0.4257 0.9048 -0.0000
vn 0.3687 0.9048 -0.2129
vn 0.5000 -0.0000 -0.8660
vn -0.0000 -0.0000 -1.0000
vn 0.2129 0.9048 -0.3687
vn -0.3687 0.9048 0.2129
vn -0.4257 0.9048 -0.0000
vn 0.3687 0.9048 0.2129
vn 0.4647 0.3692 -0.8048
vn -0.5000 -0.0000 0.8660
vn -0.0000 0.9048 0.4257
vn 0.2129 0.9048 0.3687
vn 0.8660 -0.0000 -0.5000
vn 0.8048 0.3692 -0.4647
vn 0.9293 0.3692 -0.0000
vn 1.0000 -0.0000 -0.0000
vn 0.8660 -0.0000 0.5000
vn 0.5000 -0.0000 0.8660
vn -0.0000 -0.0000 1.0000
vn -0.2129 0.9048 0.3687
vn -0.9293 0.3692 -0.0000
vn -0.8048 0.3692 -0.4647
vn -0.8048 0.3692 0.4647
vn 0.8048 0.3692 0.4647
vn 0.4647 0.3692 0.8048
vn -0.4647 0.3692 0.8048
vn -0.0000 0.9463 -0.3232
vn -0.0000 0.9239 0.3827
vn -0.0000 0.3692 0.9293
vn -0.3827 0.9239 -0.0000
vn -0.9239 0.3827 -0.0000
vn -0.0000 0.9046 -0.4263
vn 0.9239 0.3827 -0.0000
vn 0.3827 -0.9239 -0.0000
vn 0.3827 0.9239 -0.0000
vn -0.0000 0.4021 0.9156
vn -0.0000 0.9317 0.3631
vn -0.0000 0.3382 -0.9411
vn 0.9239 -0.3827 -0.0000
vn -0.0000 0.9046 -0.4262
vn -0.0000 0.5481 -0.8364
vn -0.0000 0.2451 -0.9695
vt 0.992812 0.788673
vt 0.992812 0.807344
vt 0.972819 0.807344
vt 0.972819 0.788673
vt 0.979847 0.267901
vt 0.991910 0.267901
vt 0.991910 0.292163
vt 0.979846 0.292163
vt 0.979846 0.243638
vt 0.979846 0.219376
vt 0.991910 0.219376
vt 0.991910 0.243638
vt 0.408029 0.887022
vt 0.408029 0.902439
vt 0.371027 0.902439
vt 0.371027 0.887022
vt 0.166694 0.806304
vt 0.166694 0.766998
vt 0.190363 0.766998
vt 0.190363 0.806304
vt 0.632440 0.458891
vt 0.632440 0.422513
vt 0.647465 0.422513
vt 0.647465 0.458891
vt 0.992812 0.863357
vt 0.992812 0.882028
vt 0.972819 0.882028
vt 0.972819 0.863357
vt 0.502000 0.892414
vt 0.551615 0.892414
vt 0.551615 0.935305
vt 0.502000 0.935305
vt 0.285040 0.806304
vt 0.261371 0.806304
vt 0.261371 0.766998
vt 0.285040 0.766998
vt 0.992812 0.770002
vt 0.972819 0.770002
vt 0.979847 0.049537
vt 0.979846 0.025275
vt 0.991910 0.025275
vt 0.991910 0.049537
vt 0.237702 0.806304
vt 0.214032 0.806304
vt 0.214032 0.766998
vt 0.237702 0.766998
vt 0.119355 0.806304
vt 0.119355 0.766998
vt 0.143025 0.766998
vt 0.143025 0.806304
vt 0.024678 0.806304
vt 0.001009 0.806304
vt 0.001009 0.766998
vt 0.024678 0.766998
vt 0.151133 0.561672
vt 0.151133 0.601897
vt 0.131020 0.636733
vt 0.096184 0.656845
vt 0.055960 0.506724
vt 0.096184 0.506724
vt 0.131020 0.526836
vt 0.635134 0.839824
vt 0.648866 0.839824
vt 0.648866 0.890355
vt 0.635134 0.890355
vt 0.533621 0.105572
vt 0.533621 0.055956
vt 0.654810 0.055956
vt 0.654810 0.105572
vt 0.979846 0.001012
vt 0.991910 0.001012
vt 0.001014 0.763835
vt 0.001014 0.740029
vt 0.041239 0.740029
vt 0.041239 0.763835
vt 0.676331 0.839824
vt 0.690063 0.839824
vt 0.690063 0.890355
vt 0.676331 0.890355
vt 0.072017 0.806304
vt 0.048347 0.806304
vt 0.048347 0.766998
vt 0.072017 0.766998
vt 0.081464 0.763835
vt 0.081464 0.740029
vt 0.121689 0.740029
vt 0.121689 0.763835
vt 0.979846 0.098062
vt 0.991910 0.098062
vt 0.991910 0.122325
vt 0.979846 0.122325
vt 0.566473 0.839824
vt 0.566473 0.890355
vt 0.552740 0.890355
vt 0.552740 0.839824
vt 0.539008 0.890355
vt 0.539008 0.839824
vt 0.483713 0.763835
vt 0.443488 0.763835
vt 0.443488 0.740029
vt 0.483713 0.740029
vt 0.095686 0.806304
vt 0.095686 0.766998
vt 0.979846 0.170850
vt 0.991910 0.170850
vt 0.991910 0.195113
vt 0.979847 0.195113
vt 0.403263 0.763835
vt 0.363038 0.763835
vt 0.363038 0.740029
vt 0.403263 0.740029
vt 0.972819 0.751331
vt 0.992812 0.751331
vt 0.621402 0.839824
vt 0.621402 0.890355
vt 0.607670 0.890355
vt 0.607670 0.839824
vt 0.593937 0.890355
vt 0.593937 0.839824
vt 0.580205 0.890355
vt 0.580205 0.839824
vt 0.297024 0.887022
vt 0.297024 0.902439
vt 0.260022 0.902439
vt 0.260022 0.887022
vt 0.161914 0.763835
vt 0.161914 0.740029
vt 0.202139 0.740029
vt 0.202139 0.763835
vt 0.223020 0.902439
vt 0.223020 0.887022
vt 0.992812 0.900699
vt 0.972819 0.900699
vt 0.310389 0.684278
vt 0.301150 0.720815
vt 0.286086 0.732466
vt 0.258845 0.732466
vt 0.244965 0.718587
vt 0.232869 0.684278
vt 0.992812 0.844686
vt 0.972819 0.844686
vt 0.286080 0.572994
vt 0.258838 0.572994
vt 0.258838 0.557969
vt 0.286080 0.557969
vt 0.632440 0.402884
vt 0.647465 0.402884
vt 0.992812 0.826015
vt 0.972819 0.826015
vt 0.242364 0.740029
vt 0.242364 0.763835
vt 0.282589 0.763835
vt 0.282589 0.740029
vt 0.941652 0.872955
vt 0.941658 0.897218
vt 0.929531 0.918232
vt 0.908522 0.930368
vt 0.884260 0.930374
vt 0.908501 0.839819
vt 0.929516 0.851946
vt 0.703795 0.839824
vt 0.703795 0.890355
vt 0.662598 0.839824
vt 0.662598 0.890355
vt 0.186018 0.902439
vt 0.186018 0.887022
vt 0.334025 0.887022
vt 0.334025 0.902439
vt 0.979847 0.073800
vt 0.991910 0.073800
vt 0.979847 0.146588
vt 0.991910 0.146588
vt 0.230943 0.230386
vt 0.115978 0.230386
vt 0.115978 0.177671
vt 0.230943 0.177671
vt 0.604414 0.832570
vt 0.604414 0.777625
vt 0.653849 0.793433
vt 0.653849 0.819334
vt 0.637815 0.832570
vt 0.227554 0.737341
vt 0.172609 0.737341
vt 0.188417 0.681683
vt 0.214317 0.681683
vt 0.227554 0.697717
vt 0.826172 0.401726
vt 0.800271 0.401726
vt 0.800271 0.386701
vt 0.826172 0.386701
vt 0.115978 0.334946
vt 0.115978 0.280001
vt 0.230943 0.280001
vt 0.230944 0.334946
vt 0.349526 0.634843
vt 0.349526 0.668244
vt 0.336289 0.684278
vt 0.294581 0.634843
vt 0.654810 0.001011
vt 0.775999 0.001011
vt 0.775999 0.055956
vt 0.001013 0.334946
vt 0.001013 0.280001
vt 0.220117 0.684278
vt 0.192251 0.658670
vt 0.192251 0.634843
vt 0.244965 0.634843
vt 0.408970 0.442184
vt 0.408970 0.427159
vt 0.439020 0.427159
vt 0.432797 0.442184
vt 0.432797 0.715168
vt 0.454323 0.693641
vt 0.469348 0.699865
vt 0.439020 0.730193
vt 0.397373 0.556087
vt 0.418899 0.577614
vt 0.412676 0.592639
vt 0.382348 0.562311
vt 0.820124 0.117179
vt 0.820124 0.102154
vt 0.857970 0.102154
vt 0.857970 0.117179
vt 0.454323 0.578676
vt 0.469348 0.578676
vt 0.408970 0.715168
vt 0.408970 0.730193
vt 0.898569 0.105039
vt 0.860724 0.105039
vt 0.860724 0.090014
vt 0.898569 0.090014
vt 0.452300 0.577614
vt 0.452300 0.592639
vt 0.790107 0.694898
vt 0.845766 0.706995
vt 0.845766 0.719747
vt 0.820158 0.747613
vt 0.790107 0.747613
vt 0.624199 0.462223
vt 0.644991 0.462223
vt 0.644991 0.477248
vt 0.624199 0.477248
vt 0.397373 0.441122
vt 0.382348 0.441122
vt 0.445731 0.307134
vt 0.445731 0.322159
vt 0.419830 0.322159
vt 0.419830 0.307134
vt 0.863229 0.851961
vt 0.884238 0.839825
vt 0.863245 0.918248
vt 0.851109 0.897239
vt 0.851103 0.872976
vt 0.320015 0.904555
vt 0.320015 0.934998
vt 0.265070 0.934998
vt 0.265070 0.904555
vt 0.001013 0.230386
vt 0.001013 0.177671
vt 0.533621 0.001011
vt 0.322814 0.763835
vt 0.322814 0.740029
vt 0.775999 0.105572
vt 0.775999 0.158286
vt 0.654810 0.158286
vt 0.653849 0.715913
vt 0.604414 0.728010
vt 0.604414 0.675295
vt 0.628241 0.675295
vt 0.653849 0.703161
vt 0.970798 0.833924
vt 0.940355 0.833924
vt 0.940355 0.781209
vt 0.970798 0.781209
vt 0.790107 0.590338
vt 0.829732 0.590338
vt 0.845766 0.603574
vt 0.845766 0.629475
vt 0.790107 0.645282
vt 0.422345 0.934998
vt 0.369630 0.934998
vt 0.369630 0.904555
vt 0.422345 0.904555
vt 0.122993 0.737341
vt 0.070279 0.737341
vt 0.070279 0.707290
vt 0.098145 0.681683
vt 0.110897 0.681683
vt 0.992812 0.732660
vt 0.972819 0.732660
vt 0.972819 0.713989
vt 0.992812 0.713989
vt 0.397373 0.326156
vt 0.382348 0.319933
vt 0.412676 0.289605
vt 0.418899 0.304630
vt 0.992812 0.695319
vt 0.972819 0.695319
vt 0.972819 0.676648
vt 0.992812 0.676648
vt 0.937972 0.556118
vt 0.895081 0.556118
vt 0.895081 0.503404
vt 0.937972 0.503404
vt 0.452300 0.289605
vt 0.452300 0.304630
vt 0.937972 0.453788
vt 0.895081 0.453788
vt 0.895081 0.398843
vt 0.937972 0.398843
vt 0.883791 0.158063
vt 0.868766 0.158063
vt 0.868766 0.145311
vt 0.883791 0.145311
vt 0.533621 0.158286
vt 0.882303 0.638713
vt 0.893953 0.653778
vt 0.893953 0.681019
vt 0.880074 0.694898
vt 0.382346 0.302357
vt 0.382346 0.289605
vt 0.397371 0.289605
vt 0.397371 0.302357
vt 0.940355 0.731594
vt 0.940355 0.676649
vt 0.970798 0.676649
vt 0.970798 0.731594
vt 0.469348 0.457487
vt 0.454323 0.463711
vt 0.122993 0.647374
vt 0.136873 0.633495
vt 0.164114 0.633495
vt 0.179179 0.645146
vt 0.731652 0.444693
vt 0.731652 0.459718
vt 0.710860 0.459718
vt 0.710860 0.444693
vt 0.373863 0.465190
vt 0.358838 0.465190
vt 0.358838 0.437949
vt 0.373863 0.437949
vt 0.688158 0.728009
vt 0.702037 0.741889
vt 0.702037 0.769130
vt 0.690386 0.784195
vt 0.740557 0.404980
vt 0.725532 0.404980
vt 0.725532 0.385352
vt 0.740557 0.385352
vt 0.740557 0.441359
vt 0.725532 0.441359
vt 0.373863 0.484234
vt 0.358838 0.484234
vt 0.373863 0.521921
vt 0.358838 0.521921
vt 0.001011 0.601897
vt 0.001011 0.561672
vt 0.021124 0.526836
vt 0.055960 0.656845
vt 0.021124 0.636733
vt 0.604330 0.935305
vt 0.604330 0.892414
vt 0.447055 0.935305
vt 0.447055 0.892414
vt 0.038011 0.887022
vt 0.075013 0.887022
vt 0.075013 0.902439
vt 0.038011 0.902439
vt 0.001010 0.887022
vt 0.001010 0.902439
vt 0.445031 0.887022
vt 0.445031 0.902439
vt 0.149017 0.887022
vt 0.149017 0.902439
vt 0.112015 0.887022
vt 0.112015 0.902439
vt 0.305124 0.572994
vt 0.305124 0.557969
vt 0.342811 0.572994
vt 0.342811 0.557969
s 1
usemtl TwinGun
f 18/1/1 20/2/1 28/3/1 27/4/1
f 35/5/2 84/6/2 83/7/3 33/8/3
f 10/9/4 12/10/5 76/11/5 77/12/4
f 136/13/6 135/14/7 161/15/8 162/16/9
f 164/17/10 75/18/11 74/19/11 162/20/9
f 144/21/12 147/22/13 150/23/13 141/24/12
f 6/25/1 8/26/1 25/27/1 24/28/1
f 122/29/14 121/30/14 146/31/15 145/32/15
f 125/33/16 140/34/17 38/35/11 23/36/11
f 16/37/1 18/1/1 27/4/1 26/38/1
f 18/39/18 16/40/19 46/41/19 47/42/18
f 138/43/20 136/44/6 36/45/11 37/46/11
f 162/20/9 74/19/11 36/45/11 136/44/6
f 158/47/21 62/48/11 45/49/11 155/50/22
f 128/51/23 125/52/16 23/53/11 29/54/11
f 140/34/17 138/43/20 37/46/11 38/35/11
f 9/55/1 34/56/1 32/57/1 15/58/1 7/59/1 13/60/1 11/61/1
f 74/62/3 75/63/2 61/64/2 60/65/3
f 121/66/14 122/67/14 99/68/1 100/69/1
f 33/70/3 83/71/3 46/41/19 16/40/19
f 15/72/19 135/73/7 137/74/24 17/75/18
f 155/50/22 45/49/11 75/18/11 164/17/10
f 62/76/5 63/77/25 49/78/25 43/79/5
f 131/80/26 130/81/27 30/82/11 31/83/11
f 130/81/27 128/51/23 29/54/11 30/82/11
f 19/84/28 139/85/29 126/86/30 1/87/31
f 2/88/31 40/89/31 39/90/32 4/91/32
f 29/92/32 21/93/32 24/94/33 30/95/33
f 30/95/33 24/94/33 25/96/34 31/97/34
f 15/98/19 32/99/3 161/100/8 135/101/7
f 160/102/35 63/103/11 62/48/11 158/47/21
f 8/104/34 42/105/34 78/106/25 14/107/25
f 34/108/2 9/109/4 156/110/36 163/111/37
f 16/37/1 26/38/1 60/112/1 33/113/1
f 36/114/19 26/115/19 27/116/18 37/117/18
f 37/117/18 27/116/18 28/118/28 38/119/28
f 38/119/28 28/118/28 22/120/31 23/121/31
f 131/80/26 31/83/11 63/103/11 160/102/35
f 155/122/22 156/123/36 157/124/38 158/125/21
f 3/126/32 127/127/39 129/128/40 5/129/33
f 158/125/21 157/124/38 159/130/41 160/131/35
f 14/132/1 49/133/1 25/27/1 8/26/1
f 143/134/31 152/135/31 151/136/31 148/137/31 147/138/31 144/139/31
f 4/140/1 6/25/1 24/28/1 21/141/1
f 154/142/42 149/143/43 148/144/43 151/145/42
f 147/22/13 148/146/43 149/147/43 150/23/13
f 20/2/1 2/148/1 22/149/1 28/3/1
f 17/75/18 137/74/24 139/85/29 19/84/28
f 5/129/33 129/128/40 132/150/44 7/151/34
f 13/152/25 7/151/34 132/150/44 159/153/41
f 39/154/11 40/155/11 48/156/11 47/157/11 46/158/11 42/159/11 41/160/11
f 63/77/25 31/161/34 25/162/34 49/78/25
f 75/63/2 45/163/4 44/164/4 61/64/2
f 10/9/4 77/12/4 84/6/2 35/5/2
f 160/131/35 159/130/41 132/165/44 131/166/26
f 164/167/10 163/168/37 156/123/36 155/122/22
f 2/88/31 20/169/28 48/170/28 40/89/31
f 2/148/1 4/140/1 21/141/1 22/149/1
f 8/104/34 6/171/33 41/172/33 42/105/34
f 20/169/28 18/39/18 47/42/18 48/170/28
f 6/171/33 4/91/32 39/90/32 41/172/33
f 88/173/45 79/174/11 59/175/11 53/176/45
f 51/177/46 86/178/46 93/179/4 56/180/4 57/181/4
f 114/182/15 145/183/15 142/184/4 119/185/4 120/186/4
f 56/187/47 93/188/11 92/189/11 70/190/47
f 58/191/11 80/192/11 87/193/45 50/194/45
f 90/195/48 112/196/31 111/197/31 143/134/31 124/198/48
f 72/199/1 64/200/49 82/201/49 99/68/1
f 58/191/11 89/202/50 133/203/50 80/192/11
f 144/139/31 98/204/31 97/205/31 95/206/48 123/207/48
f 36/114/19 74/62/3 60/65/3 26/115/19
f 97/208/51 117/209/51 115/210/34 95/211/34
f 52/212/34 53/213/34 67/214/34 66/215/34
f 50/216/19 51/217/19 65/218/19 64/219/19
f 98/220/52 118/221/52 117/222/51 97/223/51
f 53/213/34 59/224/34 73/225/34 67/214/34
f 54/226/51 52/212/34 66/215/34 68/227/51
f 55/228/52 54/229/51 68/230/51 69/231/52
f 51/217/19 57/232/53 71/233/53 65/218/19
f 102/234/54 91/235/31 69/236/31 68/237/31 66/238/54
f 57/239/53 56/240/47 70/241/47 71/242/53
f 58/243/19 50/216/19 64/219/19 72/244/19
f 111/245/55 119/246/55 142/247/11 143/248/11
f 76/249/11 78/250/11 42/159/11 46/158/11 83/251/11 84/252/11 77/253/11
f 87/254/45 86/255/46 51/256/46 50/257/45
f 134/258/50 96/259/50 59/175/11 79/174/11
f 72/199/1 99/68/1 122/67/14 113/260/14
f 11/261/5 13/152/25 159/153/41 157/262/38
f 100/69/1 81/263/49 67/264/49 73/265/1
f 94/266/4 85/267/46 52/268/46 54/269/4 55/270/4
f 95/271/48 96/272/50 134/273/50 123/274/48
f 65/275/54 71/276/31 70/277/31 92/278/31 101/279/54
f 52/280/46 85/281/46 88/282/45 53/283/45
f 146/284/15 115/285/15 117/286/4 118/287/4 141/288/4
f 14/107/25 78/106/25 76/11/5 12/10/5
f 35/289/1 61/290/1 44/291/1 10/292/1
f 89/293/19 113/294/19 114/295/19 90/296/19
f 12/297/1 43/298/1 49/299/1 14/300/1
f 66/301/54 67/302/49 81/303/49 102/304/54
f 90/296/19 114/295/19 120/305/53 112/306/53
f 101/307/54 82/308/49 64/309/49 65/310/54
f 91/311/11 94/312/11 55/313/52 69/314/52
f 100/69/1 73/265/1 116/315/14 121/66/14
f 10/292/1 44/291/1 43/298/1 12/297/1
f 133/203/50 134/258/50 79/174/11 80/192/11
f 88/282/45 85/281/46 86/255/46 87/254/45
f 87/193/45 80/192/11 79/174/11 88/173/45
f 91/235/31 92/278/31 109/316/31 110/317/31 105/318/31 106/319/31
f 85/267/46 94/266/4 93/179/4 86/178/46
f 141/320/11 118/321/52 98/322/52 144/323/11
f 133/324/50 89/325/50 90/326/48 124/327/48
f 58/243/19 72/244/19 113/294/19 89/293/19
f 82/308/49 101/307/54 102/304/54 81/303/49
f 95/211/34 115/210/34 116/328/34 96/329/34
f 81/263/49 100/69/1 99/68/1 82/201/49
f 101/279/54 92/278/31 91/235/31 102/234/54
f 96/329/34 116/328/34 73/225/34 59/224/34
f 141/288/4 150/330/4 149/331/4 154/332/4 153/333/4 142/184/4
f 112/334/53 120/335/53 119/336/55 111/337/55
f 110/338/42 107/339/42 104/340/43 105/341/43
f 93/179/4 94/266/4 103/342/4 104/343/4 107/344/4 108/345/4
f 103/346/13 106/347/13 105/348/43 104/349/43
f 94/350/12 91/351/12 106/347/13 103/346/13
f 109/352/56 108/353/56 107/339/42 110/338/42
f 92/354/57 93/355/57 108/353/56 109/352/56
f 32/99/3 34/108/2 163/111/37 161/100/8
f 1/356/1 3/357/1 5/358/1 7/59/1 15/58/1 17/359/1 19/360/1
f 115/361/15 146/31/15 121/30/14 116/362/14
f 145/32/15 114/363/15 113/364/14 122/29/14
f 123/207/48 124/198/48 143/134/31 144/139/31
f 134/273/50 133/324/50 124/327/48 123/274/48
f 33/113/1 60/112/1 61/290/1 35/289/1
f 145/183/15 146/284/15 141/288/4 142/184/4
f 140/365/17 125/366/16 126/367/30 139/368/29
f 138/369/20 140/365/17 139/368/29 137/370/24
f 136/13/6 138/371/20 137/372/24 135/14/7
f 130/373/27 131/166/26 132/165/44 129/374/40
f 128/375/23 130/373/27 129/374/40 127/376/39
f 125/366/16 128/375/23 127/376/39 126/367/30
f 153/377/56 154/142/42 151/145/42 152/378/56
f 9/109/4 11/261/5 157/262/38 156/110/36
f 44/164/4 45/163/4 62/76/5 43/79/5
f 162/16/9 161/15/8 163/168/37 164/167/10
f 142/379/57 153/377/56 152/378/56 143/380/57
f 1/87/31 126/86/30 127/127/39 3/126/32
f 22/120/31 21/93/32 29/92/32 23/121/31
